<?xml version="1.0" encoding="UTF-8" standalone="no"?>
<!-- Generator: Adobe Illustrator 16.0.0, SVG Export Plug-In . SVG Version: 6.00 Build 0)  -->

<svg
   xmlns:dc="http://purl.org/dc/elements/1.1/"
   xmlns:cc="http://creativecommons.org/ns#"
   xmlns:rdf="http://www.w3.org/1999/02/22-rdf-syntax-ns#"
   xmlns:svg="http://www.w3.org/2000/svg"
   xmlns="http://www.w3.org/2000/svg"
   xmlns:sodipodi="http://sodipodi.sourceforge.net/DTD/sodipodi-0.dtd"
   xmlns:inkscape="http://www.inkscape.org/namespaces/inkscape"
   version="1.1"
   id="Capa_1"
   x="0px"
   y="0px"
   width="512"
   height="512"
   viewBox="0 0 511.99999 511.99999"
   xml:space="preserve"
   sodipodi:docname="checkbox.svg"
   inkscape:export-filename="C:\Users\cliea\Desktop\qualitybits\Projects\DiveAbyss\Images\checkbox.png"
   inkscape:export-xdpi="96"
   inkscape:export-ydpi="96"
   inkscape:version="0.92.4 (5da689c313, 2019-01-14)"><metadata
   id="metadata45"><rdf:RDF><cc:Work
       rdf:about=""><dc:format>image/svg+xml</dc:format><dc:type
         rdf:resource="http://purl.org/dc/dcmitype/StillImage" /><dc:title /></cc:Work></rdf:RDF></metadata><defs
   id="defs43">
	
</defs><sodipodi:namedview
   pagecolor="#ffffff"
   bordercolor="#666666"
   borderopacity="1"
   objecttolerance="10"
   gridtolerance="10"
   guidetolerance="10"
   inkscape:pageopacity="0"
   inkscape:pageshadow="2"
   inkscape:window-width="1920"
   inkscape:window-height="1017"
   id="namedview41"
   showgrid="true"
   inkscape:zoom="0.59763024"
   inkscape:cx="203.53088"
   inkscape:cy="1.439543"
   inkscape:window-x="-8"
   inkscape:window-y="425"
   inkscape:window-maximized="1"
   inkscape:current-layer="g6"
   showguides="false"><inkscape:grid
     type="xygrid"
     id="grid829" /></sodipodi:namedview>
<g
   id="g6"
   transform="matrix(1.2923734,0,0,1.2923734,1.6732754,5.368397)">
		<path
   inkscape:connector-curvature="0"
   id="path2"
   d="m 307.82154,192.26735 c -4.91202,0 -8.89344,3.98213 -8.89344,8.89344 V 305.35417 H 80.557937 V 86.982574 H 255.98632 c 4.91202,0 8.89344,-3.982125 8.89344,-8.893436 0,-4.911312 -3.98142,-8.893438 -8.89344,-8.893438 H 71.6645 c -4.911311,0 -8.893437,3.982126 -8.893437,8.893438 V 314.2476 c 0,4.91132 3.982126,8.89344 8.893437,8.89344 h 236.15704 c 4.9106,0 8.89343,-3.98212 8.89343,-8.89344 V 201.16079 c 0,-4.91131 -3.98141,-8.89344 -8.89343,-8.89344 z"
   style="stroke-width:0.71147496" />
		<path
   inkscape:connector-curvature="0"
   id="path4"
   d="m 341.12141,75.045447 c -3.47271,-3.472709 -9.10332,-3.472709 -12.57745,0 L 183.69121,219.89962 147.70197,183.91037 c -3.47342,-3.47272 -9.10404,-3.47272 -12.57746,0 -3.47271,3.47342 -3.47271,9.10403 0,12.57745 l 42.27798,42.27798 c 1.7367,1.736 4.01272,2.60471 6.28872,2.60471 2.27601,0 4.55202,-0.86871 6.28873,-2.60471 L 341.12141,87.622902 c 3.47414,-3.473421 3.47414,-9.104034 0,-12.577455 z"
   style="fill:#a40000;fill-opacity:1;stroke-width:0.71147496" />
	</g>
<g
   id="g10"
   transform="translate(0,117.10699)">
</g>
<g
   id="g12"
   transform="translate(0,117.10699)">
</g>
<g
   id="g14"
   transform="translate(0,117.10699)">
</g>
<g
   id="g16"
   transform="translate(0,117.10699)">
</g>
<g
   id="g18"
   transform="translate(0,117.10699)">
</g>
<g
   id="g20"
   transform="translate(0,117.10699)">
</g>
<g
   id="g22"
   transform="translate(0,117.10699)">
</g>
<g
   id="g24"
   transform="translate(0,117.10699)">
</g>
<g
   id="g26"
   transform="translate(0,117.10699)">
</g>
<g
   id="g28"
   transform="translate(0,117.10699)">
</g>
<g
   id="g30"
   transform="translate(0,117.10699)">
</g>
<g
   id="g32"
   transform="translate(0,117.10699)">
</g>
<g
   id="g34"
   transform="translate(0,117.10699)">
</g>
<g
   id="g36"
   transform="translate(0,117.10699)">
</g>
<g
   id="g38"
   transform="translate(0,117.10699)">
</g>
</svg>